<?xml version="1.0" standalone="no"?>
<!DOCTYPE svg PUBLIC "-//W3C//DTD SVG 20010904//EN"
 "http://www.w3.org/TR/2001/REC-SVG-20010904/DTD/svg10.dtd">
<svg version="1.0" xmlns="http://www.w3.org/2000/svg"
 width="40.000000pt" viewBox="0 0 250.000000 223.000000"
 preserveAspectRatio="xMidYMid meet">
<metadata>
Created by potrace 1.13, written by Peter Selinger 2001-2015
</metadata>
<g transform="translate(0.000000,223.000000) scale(0.100000,-0.100000)"
fill="#ffffff" stroke="none">
<path d="M1145 2166 c-105 -49 -173 -168 -162 -285 6 -75 36 -132 108 -208 89
-92 106 -146 70 -215 -11 -19 -17 -39 -13 -44 4 -4 2 -4 -4 -1 -7 4 -17 1 -23
-7 -6 -7 -24 -16 -40 -19 -22 -5 -34 -17 -50 -50 -24 -49 -26 -79 -9 -128 23
-69 35 -73 30 -10 -5 65 12 91 22 35 4 -19 23 -53 42 -74 95 -105 247 -85 307
41 28 59 43 52 32 -18 -8 -52 4 -51 29 1 37 79 6 184 -61 207 -21 7 -42 12
-46 11 -5 -1 -6 2 -3 7 3 5 -3 20 -15 35 -28 35 -34 85 -16 127 8 19 46 69 84
110 84 91 107 147 101 243 -4 64 -44 163 -64 159 -6 -1 -24 12 -40 30 l-29 32
33 -29 c17 -17 32 -25 32 -19 0 16 -58 56 -70 48 -6 -4 -9 -1 -8 5 4 19 -60
38 -127 39 -43 1 -74 -6 -110 -23z m25 -6 c-8 -5 -19 -10 -25 -10 -5 0 -3 5 5
10 8 5 20 10 25 10 6 0 3 -5 -5 -10z m-40 -14 c0 -2 -8 -10 -17 -17 -16 -13
-17 -12 -4 4 13 16 21 21 21 13z m-40 -30 c0 -2 -8 -10 -17 -17 -16 -13 -17
-12 -4 4 13 16 21 21 21 13z m227 -613 c-3 -10 -5 -4 -5 12 0 17 2 24 5 18 2
-7 2 -21 0 -30z"/>
<path d="M833 925 c-18 -8 -49 -30 -69 -50 -34 -35 -36 -39 -30 -84 4 -32 1
-59 -8 -83 -15 -36 -68 -88 -88 -88 -6 0 -8 -3 -5 -6 4 -4 26 6 49 21 24 15
40 24 35 20 -4 -5 0 -16 8 -25 9 -10 18 -33 22 -53 4 -29 2 -37 -16 -47 -26
-13 -159 -126 -183 -155 -10 -11 -17 -30 -18 -42 0 -13 -4 -23 -10 -23 -5 0
-10 -6 -10 -14 0 -33 -103 -120 -156 -131 -72 -16 -88 -16 -142 1 -31 10 -60
17 -64 16 -4 -1 -4 6 -1 15 4 9 2 14 -4 10 -12 -8 -35 18 -52 61 -10 23 -16
29 -22 21 -15 -24 -3 136 13 172 16 37 48 69 35 35 -4 -10 -3 -15 4 -11 5 4 7
15 4 25 -7 23 42 65 115 97 51 23 58 24 115 12 33 -6 65 -16 71 -21 13 -9 65
-7 59 3 -3 3 28 5 68 3 l72 -3 -60 8 c-33 5 -87 16 -120 25 -77 21 -99 20
-178 -4 -159 -49 -257 -220 -213 -371 21 -76 62 -128 127 -164 48 -27 63 -30
139 -30 99 0 152 20 220 81 48 44 78 99 109 201 23 77 56 125 103 149 24 12
46 14 99 9 42 -4 69 -12 69 -19 0 -11 11 -19 70 -54 l25 -14 -25 21 -25 21 23
0 c49 0 123 52 149 105 13 28 11 27 -26 -11 -22 -23 -43 -39 -47 -35 -4 3 -4
1 -1 -5 4 -7 -10 -18 -36 -28 -82 -31 -123 -15 -49 19 60 29 89 57 113 109 68
149 -81 309 -233 251 -10 -4 -18 -3 -18 3 0 14 94 52 132 53 27 0 30 2 13 9
-31 13 -117 11 -152 -5z m112 -121 c39 -18 65 -72 65 -133 0 -32 -6 -44 -35
-70 -40 -34 -76 -39 -128 -18 -37 16 -92 89 -83 112 3 8 1 15 -4 15 -19 0 -10
38 18 68 47 54 93 61 167 26z"/>
<path d="M1540 930 l-25 -8 27 -1 c14 -1 47 -10 72 -21 53 -22 63 -44 15 -30
-52 15 -125 -6 -168 -49 -77 -77 -75 -197 6 -273 48 -45 86 -55 175 -45 133
15 177 -19 227 -181 25 -82 39 -109 76 -150 68 -75 139 -107 240 -107 71 0 86
3 135 31 102 57 146 143 138 265 -9 114 -74 206 -183 255 -78 35 -129 39 -229
15 -48 -12 -105 -21 -125 -21 -84 0 -158 92 -145 182 6 46 4 49 -34 86 -56 54
-133 74 -202 52z"/>
<path d="M1380 564 c2 -32 97 -104 138 -104 14 0 21 -4 16 -11 -5 -8 -1 -8 14
0 35 18 33 27 -5 23 -23 -3 -33 -1 -29 6 4 6 -2 8 -13 5 -14 -3 -35 9 -70 42
-28 26 -51 44 -51 39z"/>
<path d="M1030 410 c8 -5 20 -10 25 -10 6 0 3 5 -5 10 -8 5 -19 10 -25 10 -5
0 -3 -5 5 -10z"/>
<path d="M1217 363 c18 -2 50 -2 70 0 21 2 7 4 -32 4 -38 0 -55 -2 -38 -4z"/>
</g>
</svg>
