<?xml version="1.0" standalone="no"?>
<!DOCTYPE svg PUBLIC "-//W3C//DTD SVG 20010904//EN"
 "http://www.w3.org/TR/2001/REC-SVG-20010904/DTD/svg10.dtd">
<svg version="1.0" xmlns="http://www.w3.org/2000/svg"
 width="100.000000pt"  viewBox="0 0 200.000000 100.000000"
 preserveAspectRatio="xMidYMid meet">
<metadata>
Created by potrace 1.13, written by Peter Selinger 2001-2015
</metadata>
<g transform="translate(0.000000,95.000000) scale(0.100000,-0.100000)"
fill="#ffffff" stroke="none">
<path d="M515 830 c-11 -4 -36 -24 -54 -44 l-35 -36 31 0 c31 0 123 55 131 78
4 14 -42 15 -73 2z"/>
<path d="M395 706 c-55 -24 -226 -224 -266 -311 -53 -114 11 -165 143 -115 62
23 66 24 50 8 -19 -19 -14 -28 13 -28 16 0 45 18 81 51 88 80 204 150 204 123
0 -3 -16 -24 -35 -47 -40 -47 -53 -83 -38 -106 31 -47 223 23 223 81 0 23 -1
23 -57 -12 -42 -27 -93 -40 -93 -24 0 4 15 25 33 48 53 64 68 92 61 110 -10
26 -73 20 -140 -14 -63 -32 -75 -33 -44 -5 28 25 25 35 -10 35 -24 0 -44 -14
-98 -68 -134 -133 -280 -166 -212 -48 35 62 107 153 187 237 40 42 73 81 73
88 0 15 -38 13 -75 -3z"/>
<path d="M850 478 c-42 -29 -75 -72 -66 -87 5 -7 22 1 49 24 32 28 49 35 82
35 l42 0 -44 -46 c-52 -54 -67 -87 -53 -114 16 -30 68 -34 130 -11 65 25 60
24 60 7 0 -33 58 -34 128 -1 63 29 72 30 72 10 0 -39 76 -45 144 -11 l47 24
24 -24 c13 -13 33 -24 44 -24 10 0 94 16 186 35 200 42 294 52 354 36 50 -14
58 -10 43 23 -27 59 -141 58 -387 -4 -87 -22 -164 -40 -172 -40 -20 0 -16 15
17 68 17 27 30 59 30 70 0 59 -128 70 -211 18 -24 -15 -75 -51 -113 -81 -65
-50 -111 -73 -124 -61 -10 11 16 52 67 108 28 31 51 59 51 62 0 3 -13 6 -30 6
-34 0 -96 -50 -130 -105 -13 -21 -39 -41 -79 -59 -32 -14 -64 -26 -70 -26 -23
0 -10 27 35 70 57 56 78 92 61 109 -6 6 -42 11 -83 11 -57 0 -77 -4 -104 -22z
m650 -31 c0 -43 -146 -155 -170 -131 -16 16 27 73 84 112 50 33 86 41 86 19z"/>
</g>
</svg>
