<?xml version="1.0" standalone="no"?>
<!DOCTYPE svg PUBLIC "-//W3C//DTD SVG 20010904//EN"
 "http://www.w3.org/TR/2001/REC-SVG-20010904/DTD/svg10.dtd">
<svg version="1.0" xmlns="http://www.w3.org/2000/svg"
 width="150.000000pt"  viewBox="0 0 1084.000000 230.000000"
 preserveAspectRatio="xMidYMid meet">
<metadata>
Created by potrace 1.13, written by Peter Selinger 2001-2015
</metadata>
<g transform="translate(0.000000,230.000000) scale(0.100000,-0.100000)"
fill="#ffffff" stroke="none">
<path d="M637 2287 c-11 -4 -30 -7 -42 -6 -11 1 -27 -1 -35 -4 -8 -3 -37 -10
-64 -17 -168 -39 -278 -160 -340 -374 -35 -119 -136 -632 -143 -725 -7 -100
10 -197 47 -255 22 -34 43 -51 92 -74 98 -47 85 -43 223 -56 87 -8 278 -8 365
0 103 10 114 11 130 17 8 3 35 11 60 17 128 33 237 129 301 266 44 94 70 191
135 514 41 200 48 253 48 355 1 110 -1 125 -26 177 -30 66 -82 108 -161 133
-29 9 -59 19 -67 22 -44 15 -485 24 -523 10z m354 -249 c92 -14 129 -60 129
-161 0 -75 -99 -576 -130 -660 -32 -86 -73 -135 -138 -165 -55 -26 -62 -27
-247 -27 -331 0 -336 11 -240 495 58 290 81 373 118 427 29 43 102 81 174 92
58 9 267 8 334 -1z"/>
<path d="M4040 2277 c0 -4 -289 -1451 -295 -1474 l-5 -23 495 0 495 0 5 23
c16 70 45 221 42 223 -2 2 -159 4 -350 4 l-347 1 5 22 c6 23 245 1220 245
1224 0 2 -65 3 -145 3 -80 0 -145 -1 -145 -3z"/>
<path d="M6187 1538 c-81 -409 -148 -746 -147 -750 0 -5 56 -8 124 -8 l124 0
11 77 c6 42 13 78 15 81 2 2 9 -12 15 -31 21 -62 107 -124 186 -133 76 -9 230
-3 242 10 3 3 13 6 22 6 9 0 43 13 76 29 72 34 140 105 180 188 51 106 125
448 125 575 0 116 -63 214 -152 239 -24 6 -50 14 -58 17 -23 8 -234 9 -245 1
-6 -4 -24 -9 -40 -11 -17 -2 -32 -5 -35 -8 -3 -3 -22 -14 -43 -24 -21 -11 -54
-37 -72 -58 -19 -21 -37 -38 -39 -38 -3 0 93 489 109 558 5 22 5 22 -122 22
l-128 0 -148 -742z m661 85 c56 -41 60 -104 21 -311 -53 -278 -112 -347 -296
-345 -104 2 -144 14 -178 54 -21 26 -25 40 -25 100 0 76 40 282 71 366 32 84
80 131 159 153 14 4 69 6 123 5 80 -1 103 -5 125 -22z"/>
<path d="M2064 1839 c-2 -4 -19 -10 -37 -13 -49 -9 -122 -59 -157 -107 -33
-47 -35 -42 -16 49 l14 62 -128 0 -127 0 -105 -525 -105 -525 127 0 127 0 62
313 c70 352 88 417 132 470 49 60 99 80 204 83 149 5 190 -19 188 -110 -1 -43
-119 -670 -139 -738 -5 -17 5 -18 123 -18 l128 0 75 373 c85 420 94 520 54
587 -22 39 -74 78 -113 86 -14 3 -33 8 -41 11 -21 8 -261 9 -266 2z"/>
<path d="M3130 1840 c-36 -5 -79 -11 -97 -13 -54 -6 -178 -74 -218 -118 -72
-80 -129 -239 -170 -473 -17 -102 -20 -244 -5 -298 25 -89 125 -151 265 -164
98 -9 315 -3 400 10 55 9 137 52 180 94 43 42 91 137 101 200 l7 42 -126 0
-125 0 -7 -30 c-13 -58 -77 -115 -137 -120 -46 -4 -181 -3 -213 2 -16 3 -36 6
-43 6 -7 1 -24 14 -37 28 -21 22 -25 37 -25 84 0 31 5 82 11 113 l12 57 362 0
362 0 17 103 c19 119 24 232 13 300 -14 82 -88 146 -195 167 -69 14 -257 19
-332 10z m216 -201 c2 -4 11 -6 18 -3 8 3 24 -7 36 -23 20 -25 22 -35 16 -101
-3 -41 -8 -78 -12 -83 -3 -5 -107 -9 -235 -9 -260 0 -242 -8 -213 89 19 64 56
108 109 125 43 15 272 19 281 5z"/>
<path d="M5327 1838 c-7 -4 -20 -8 -29 -8 -36 0 -126 -42 -167 -76 -45 -39
-95 -127 -106 -187 l-7 -37 125 0 125 0 12 35 c15 46 69 92 117 99 21 3 80 4
130 3 160 -5 179 -38 142 -237 l-24 -125 -23 38 c-38 66 -89 81 -266 82 -129
1 -158 -2 -218 -21 -114 -38 -156 -73 -207 -171 -47 -92 -66 -267 -37 -336 13
-31 78 -97 96 -97 5 0 21 -5 37 -11 56 -22 241 -27 338 -9 63 13 143 48 164
74 31 37 36 15 15 -57 -5 -16 4 -17 122 -15 l128 3 73 360 c53 265 72 382 72
443 1 149 -45 210 -186 243 -54 13 -408 18 -426 7z m255 -627 c28 -31 30 -39
25 -83 -4 -27 -17 -68 -29 -91 -39 -70 -96 -91 -243 -91 -173 0 -200 18 -193
126 6 83 35 133 92 159 34 15 64 18 179 16 l139 -2 30 -34z m-12 -321 c0 -5
-5 -10 -11 -10 -5 0 -7 5 -4 10 3 6 8 10 11 10 2 0 4 -4 4 -10z"/>
<path d="M8080 1649 c0 -7 -11 -9 -25 -7 -14 3 -25 1 -25 -5 0 -5 -11 -7 -25
-5 -13 3 -26 1 -27 -4 -2 -5 -23 -10 -46 -11 -23 -1 -42 -6 -42 -11 0 -4 -11
-6 -25 -4 -13 3 -26 1 -27 -3 -2 -5 -22 -10 -45 -12 -24 -1 -43 -6 -43 -11 0
-4 -11 -6 -25 -4 -14 3 -25 1 -25 -5 0 -5 -11 -7 -25 -5 -13 3 -26 1 -27 -4
-2 -5 -23 -10 -46 -11 -23 -1 -42 -5 -42 -9 0 -5 594 -9 1320 -10 740 -2 1320
1 1320 6 0 4 11 6 25 4 14 -3 25 -1 25 5 0 5 11 7 25 5 13 -3 26 -1 27 3 2 5
22 10 45 12 24 1 43 6 43 11 0 4 11 6 25 4 14 -3 25 -1 25 5 0 5 11 7 25 5 14
-3 25 -1 25 5 0 5 9 7 20 4 11 -3 20 -1 20 5 0 6 11 8 25 6 14 -3 25 -1 25 5
0 5 11 7 25 5 13 -3 26 -1 27 3 2 5 22 10 45 12 24 1 43 6 43 11 0 4 11 6 25
4 14 -3 25 -1 25 4 0 4 -583 8 -1345 8 -963 0 -1345 -4 -1345 -11z"/>
<path d="M8098 1360 c-2 -6 -22 -11 -45 -13 -24 -1 -43 -6 -43 -11 0 -4 -11
-6 -25 -4 -14 3 -25 1 -25 -5 0 -5 -11 -7 -25 -5 -14 3 -25 1 -25 -5 0 -5 -9
-7 -20 -4 -11 3 -20 1 -20 -5 0 -6 -11 -8 -25 -6 -14 3 -25 1 -25 -5 0 -5 -11
-7 -25 -5 -13 3 -26 1 -27 -3 -2 -5 -22 -10 -45 -12 -24 -1 -43 -6 -43 -11 0
-4 -11 -6 -25 -4 -14 3 -25 1 -25 -5 0 -5 -11 -7 -25 -5 -14 3 -25 1 -25 -3 0
-5 -10 -10 -22 -11 -13 -2 571 -5 1297 -8 770 -3 1323 -1 1326 4 4 5 16 6 27
3 12 -2 22 -1 24 4 2 5 22 10 45 12 24 1 43 6 43 11 0 4 11 6 25 4 14 -3 25
-1 25 5 0 5 11 7 25 5 13 -3 26 -1 27 4 2 5 23 10 46 11 23 1 42 6 42 11 0 4
11 6 25 4 13 -3 26 -1 27 3 2 5 22 10 45 12 24 1 43 6 43 11 0 4 11 6 25 4 14
-3 25 -1 25 5 0 5 11 7 25 5 14 -3 25 -2 25 3 0 4 10 10 23 12 12 2 -584 5
-1325 5 -861 1 -1348 -2 -1350 -8z"/>
<path d="M5162 341 c-37 -19 -42 -29 -42 -83 0 -65 20 -84 101 -94 35 -4 68
-7 73 -6 17 5 36 -22 36 -52 0 -49 -13 -59 -78 -64 -51 -4 -63 -1 -81 17 -11
11 -21 30 -21 41 0 11 -6 20 -14 20 -21 0 -25 -11 -17 -50 5 -25 15 -39 35
-49 40 -19 150 -17 181 3 29 19 42 73 28 119 -11 41 -46 58 -124 60 -47 2 -64
7 -75 22 -32 44 -7 85 57 92 56 6 99 -10 99 -37 0 -13 7 -20 20 -20 22 0 27
28 10 60 -17 33 -139 47 -188 21z"/>
<path d="M6582 341 c-37 -19 -42 -29 -42 -83 0 -65 20 -84 101 -94 35 -4 68
-7 73 -6 17 5 36 -22 36 -52 0 -49 -13 -59 -78 -64 -51 -4 -63 -1 -81 17 -11
11 -21 30 -21 41 0 11 -6 20 -14 20 -21 0 -25 -11 -17 -50 5 -25 15 -39 35
-49 40 -19 150 -17 181 3 29 19 42 73 28 119 -11 41 -46 58 -124 60 -47 2 -64
7 -75 22 -32 44 -7 85 57 92 56 6 99 -10 99 -37 0 -13 7 -20 20 -20 22 0 27
28 10 60 -17 33 -139 47 -188 21z"/>
<path d="M530 180 c0 -163 1 -170 20 -170 18 0 20 7 20 80 l0 80 80 0 c74 0
80 1 80 21 0 19 -5 20 -80 17 l-80 -3 0 52 0 52 82 3 c70 3 83 6 86 21 3 15
-7 17 -102 17 l-106 0 0 -170z"/>
<path d="M780 216 c0 -151 7 -182 47 -197 39 -15 145 -14 179 2 38 19 45 54
42 201 -3 108 -5 123 -20 126 -16 3 -18 -8 -18 -130 0 -97 -4 -139 -14 -153
-19 -26 -117 -33 -151 -11 -25 16 -25 18 -25 156 0 133 -1 140 -20 140 -19 0
-20 -7 -20 -134z"/>
<path d="M1080 330 c0 -18 6 -20 55 -20 l55 0 0 -150 c0 -143 1 -150 20 -150
19 0 20 7 20 150 l0 150 56 0 c47 0 55 3 52 18 -3 15 -19 17 -131 20 -122 2
-127 2 -127 -18z"/>
<path d="M1360 216 c0 -151 7 -182 47 -197 39 -15 145 -14 179 2 38 19 45 54
42 201 -3 108 -5 123 -20 126 -16 3 -18 -8 -18 -130 0 -97 -4 -139 -14 -153
-19 -26 -117 -33 -151 -11 -25 16 -25 18 -25 156 0 133 -1 140 -20 140 -19 0
-20 -7 -20 -134z"/>
<path d="M1690 181 c0 -164 1 -171 20 -171 18 0 20 7 20 70 l0 70 68 0 c88 0
101 -10 109 -83 4 -38 10 -57 19 -57 20 0 19 123 0 139 -13 11 -12 15 5 32 26
26 26 108 0 140 -17 22 -28 24 -130 27 l-111 4 0 -171z m208 116 c17 -14 15
-83 -4 -101 -11 -12 -36 -16 -90 -16 l-74 0 0 66 0 65 78 -2 c42 -1 83 -6 90
-12z"/>
<path d="M1990 180 l0 -170 105 0 c98 0 105 1 105 20 0 18 -7 20 -85 20 l-85
0 0 60 0 60 85 0 c69 0 85 3 85 15 0 12 -16 15 -85 15 l-85 0 0 55 0 55 85 0
c78 0 85 2 85 20 0 19 -7 20 -105 20 l-105 0 0 -170z"/>
<path d="M2380 180 c0 -163 1 -170 20 -170 19 0 20 7 20 170 0 163 -1 170 -20
170 -19 0 -20 -7 -20 -170z"/>
<path d="M2480 180 c0 -163 1 -170 20 -170 18 0 20 8 22 146 l3 147 90 -147
c86 -140 91 -146 122 -146 l33 0 0 170 c0 163 -1 170 -20 170 -18 0 -20 -8
-22 -147 l-3 -148 -90 147 c-86 141 -91 147 -122 148 l-33 0 0 -170z"/>
<path d="M2800 330 c0 -18 6 -20 55 -20 l55 0 0 -150 c0 -143 1 -150 20 -150
19 0 20 7 20 150 l0 150 56 0 c47 0 55 3 52 18 -3 15 -19 17 -131 20 -122 2
-127 2 -127 -18z"/>
<path d="M3070 180 l0 -170 105 0 c98 0 105 1 105 20 0 18 -7 20 -85 20 l-85
0 0 60 0 60 85 0 c69 0 85 3 85 15 0 12 -16 15 -85 15 l-85 0 0 55 0 55 85 0
c78 0 85 2 85 20 0 19 -7 20 -105 20 l-105 0 0 -170z"/>
<path d="M3330 181 c0 -164 1 -171 20 -171 18 0 20 7 20 70 l0 70 68 0 c88 0
101 -10 109 -83 4 -38 10 -57 19 -57 20 0 19 123 0 139 -13 11 -12 15 5 32 26
26 26 108 0 140 -17 22 -28 24 -130 27 l-111 4 0 -171z m208 116 c17 -14 15
-83 -4 -101 -11 -12 -36 -16 -90 -16 l-74 0 0 66 0 65 78 -2 c42 -1 83 -6 90
-12z"/>
<path d="M3640 180 c0 -163 1 -170 20 -170 18 0 20 8 22 146 l3 147 90 -147
c86 -140 91 -146 122 -146 l33 0 0 170 c0 163 -1 170 -20 170 -18 0 -20 -8
-22 -147 l-3 -148 -90 147 c-86 141 -91 147 -122 148 l-33 0 0 -170z"/>
<path d="M3980 180 l0 -170 105 0 c98 0 105 1 105 20 0 18 -7 20 -85 20 l-85
0 0 60 0 60 85 0 c69 0 85 3 85 15 0 12 -16 15 -85 15 l-85 0 0 55 0 55 85 0
c78 0 85 2 85 20 0 19 -7 20 -105 20 l-105 0 0 -170z"/>
<path d="M4210 330 c0 -18 6 -20 55 -20 l55 0 0 -150 c0 -143 1 -150 20 -150
19 0 20 7 20 150 l0 150 56 0 c47 0 55 3 52 18 -3 15 -19 17 -131 20 -122 2
-127 2 -127 -18z"/>
<path d="M4590 330 c0 -18 6 -20 55 -20 l55 0 0 -150 c0 -143 1 -150 20 -150
19 0 20 7 20 150 l0 150 56 0 c47 0 55 3 52 18 -3 15 -19 17 -131 20 -122 2
-127 2 -127 -18z"/>
<path d="M4870 180 l0 -170 105 0 c98 0 105 1 105 20 0 18 -7 20 -85 20 l-85
0 0 60 0 60 85 0 c69 0 85 3 85 15 0 12 -16 15 -85 15 l-85 0 0 55 0 55 85 0
c78 0 85 2 85 20 0 19 -7 20 -105 20 l-105 0 0 -170z"/>
<path d="M5380 330 c0 -18 6 -20 55 -20 l55 0 0 -150 c0 -143 1 -150 20 -150
19 0 20 7 20 150 l0 150 56 0 c47 0 55 3 52 18 -3 15 -19 17 -131 20 -122 2
-127 2 -127 -18z"/>
<path d="M5670 179 l0 -171 111 4 c104 3 112 5 131 28 25 31 21 116 -7 136
-16 12 -16 14 -1 36 17 23 21 84 8 105 -14 22 -63 33 -153 33 l-89 0 0 -171z
m208 86 c5 -53 -14 -65 -100 -65 l-68 0 0 56 0 55 83 -3 82 -3 3 -40z m-14
-105 c22 -8 26 -16 26 -49 0 -21 -6 -43 -12 -48 -7 -6 -48 -11 -90 -12 l-78
-2 0 60 0 61 64 0 c36 0 76 -4 90 -10z"/>
<path d="M5970 180 l0 -170 105 0 c98 0 105 1 105 20 0 18 -7 20 -85 20 l-85
0 0 60 0 60 85 0 c69 0 85 3 85 15 0 12 -16 15 -85 15 l-85 0 0 55 0 55 85 0
c78 0 85 2 85 20 0 19 -7 20 -105 20 l-105 0 0 -170z"/>
<path d="M6230 180 l0 -170 94 0 c104 0 151 12 168 43 17 33 22 186 6 232 -17
51 -51 64 -175 64 l-93 1 0 -170z m227 104 c19 -30 15 -192 -6 -217 -10 -13
-32 -17 -97 -17 l-84 0 0 130 0 131 86 -2 c77 -1 87 -4 101 -25z"/>
</g>
</svg>
