<?xml version="1.0" standalone="no"?>
<!DOCTYPE svg PUBLIC "-//W3C//DTD SVG 20010904//EN"
 "http://www.w3.org/TR/2001/REC-SVG-20010904/DTD/svg10.dtd">
<svg version="1.0" xmlns="http://www.w3.org/2000/svg"
 width="140.000000pt" height="60.000000pt" viewBox="0 0 179.000000 60.000000"
 preserveAspectRatio="xMidYMid meet">
<metadata>
Created by potrace 1.13, written by Peter Selinger 2001-2015
</metadata>
<g transform="translate(0.000000,60.000000) scale(0.100000,-0.100000)"
fill="#ffffff" stroke="none">
<path d="M1023 593 c9 -2 25 -2 35 0 9 3 1 5 -18 5 -19 0 -27 -2 -17 -5z"/>
<path d="M955 578 c-50 -27 -94 -82 -105 -130 -7 -27 -9 -52 -6 -55 3 -4 6 0
6 8 0 66 51 141 115 170 22 10 33 19 25 18 -8 0 -24 -5 -35 -11z"/>
<path d="M1120 574 c19 -8 50 -29 69 -47 29 -28 32 -29 17 -6 -16 26 -84 69
-107 69 -8 -1 2 -8 21 -16z"/>
<path d="M983 500 c-31 -19 -63 -65 -63 -92 0 -7 9 5 20 28 22 43 46 61 101
74 l34 8 -30 1 c-16 0 -44 -8 -62 -19z"/>
<path d="M1095 498 c11 -6 27 -16 35 -22 9 -6 5 -1 -8 12 -13 12 -28 22 -35
22 -7 0 -3 -6 8 -12z"/>
<path d="M998 443 c-22 -26 -30 -43 -21 -43 5 0 13 10 18 23 13 29 68 36 98
10 l22 -18 -19 23 c-23 27 -76 30 -98 5z"/>
<path d="M1241 414 c0 -11 3 -14 6 -6 3 7 2 16 -1 19 -3 4 -6 -2 -5 -13z"/>
<path d="M1030 400 c0 -5 7 -10 15 -10 8 0 15 5 15 10 0 6 -7 10 -15 10 -8 0
-15 -4 -15 -10z"/>
<path d="M115 358 c-29 -17 -35 -28 -35 -75 0 -54 26 -83 75 -83 49 0 75 29
75 83 0 48 -6 59 -37 76 -27 14 -52 14 -78 -1z m73 -72 c4 -56 -6 -71 -42 -62
-23 6 -26 11 -26 55 0 55 5 63 40 59 22 -3 25 -8 28 -52z"/>
<path d="M257 363 c-4 -3 -7 -42 -7 -85 0 -71 2 -78 20 -78 16 0 20 7 20 34 0
31 3 34 36 39 39 7 74 32 74 53 0 23 -43 44 -91 44 -25 0 -49 -3 -52 -7z m103
-38 c0 -14 -37 -35 -61 -35 -5 0 -9 11 -9 25 0 22 4 25 35 25 25 0 35 -4 35
-15z"/>
<path d="M434 357 c-3 -8 -4 -45 -2 -83 l3 -69 63 -3 c38 -2 62 1 62 8 0 5
-20 10 -45 10 -41 0 -45 2 -45 25 0 21 5 25 30 25 20 0 30 5 30 15 0 11 -8 13
-30 9 -27 -6 -30 -4 -30 20 0 24 3 26 45 26 33 0 45 4 45 15 0 20 -118 22
-126 2z"/>
<path d="M597 363 c-4 -3 -7 -42 -7 -85 0 -71 2 -78 20 -78 17 0 20 7 20 52
l0 53 33 -53 c24 -39 37 -52 52 -50 18 3 20 12 23 86 3 76 1 82 -17 82 -17 0
-20 -8 -23 -52 l-3 -52 -32 52 c-30 48 -50 62 -66 45z"/>
<path d="M903 358 c-4 -7 -22 -46 -39 -85 l-32 -73 23 0 c14 0 25 7 27 16 5
25 79 26 86 2 4 -15 42 -27 42 -13 0 10 -54 141 -63 153 -5 6 -15 12 -23 12
-7 0 -16 -6 -21 -12z m47 -90 c0 -5 -11 -8 -25 -8 -29 0 -29 0 -13 35 l12 26
13 -23 c7 -13 12 -26 13 -30z"/>
<path d="M1030 285 c0 -74 2 -85 18 -85 15 0 17 11 17 85 0 74 -2 85 -17 85
-16 0 -18 -11 -18 -85z"/>
<path d="M1108 364 c-5 -4 -8 -43 -8 -86 0 -71 2 -78 20 -78 18 0 20 7 20 71
l0 70 32 -3 c43 -4 48 -26 9 -41 -17 -6 -31 -19 -31 -27 0 -21 48 -66 78 -73
30 -7 28 4 -8 38 -36 34 -36 37 -8 50 35 16 46 42 26 61 -18 18 -117 32 -130
18z"/>
<path d="M270 170 c-20 -4 44 -8 153 -9 146 -1 188 -4 185 -13 -3 -7 -21 -14
-41 -16 -21 -2 -37 -9 -37 -16 0 -8 12 -11 34 -8 30 3 34 1 30 -14 -4 -14 -14
-19 -37 -19 -18 0 -34 -4 -37 -10 -3 -6 10 -9 32 -7 31 3 37 1 32 -12 -5 -14
16 -16 202 -15 115 0 232 4 259 9 34 5 -13 8 -147 9 -169 1 -198 3 -198 16 0
11 11 15 39 15 22 0 43 5 46 10 4 6 -10 10 -34 10 -24 0 -41 5 -41 11 0 8 -4
8 -14 0 -18 -15 -88 -10 -94 7 -3 9 20 12 92 12 52 0 98 4 101 10 4 6 -8 10
-29 10 -25 0 -36 4 -36 15 0 13 -30 15 -212 14 -117 -1 -229 -5 -248 -9z m427
-6 c-3 -3 -12 -4 -19 -1 -8 3 -5 6 6 6 11 1 17 -2 13 -5z m-7 -99 c0 -11 -12
-15 -44 -15 -43 0 -63 10 -49 24 3 3 26 6 50 6 32 0 43 -4 43 -15z"/>
<path d="M830 120 c0 -22 5 -40 10 -40 6 0 10 18 10 40 0 22 -4 40 -10 40 -5
0 -10 -18 -10 -40z"/>
<path d="M871 120 c1 -35 3 -40 8 -20 l7 25 12 -22 c19 -35 32 -27 32 18 0 25
-4 38 -10 34 -6 -4 -8 -16 -5 -28 6 -18 2 -17 -19 8 l-25 30 0 -45z"/>
<path d="M953 149 c10 -6 17 -22 17 -39 0 -17 4 -30 9 -30 4 0 6 12 3 27 -3
18 1 30 13 40 17 12 15 13 -21 13 -31 -1 -36 -3 -21 -11z"/>
<path d="M1020 120 c0 -39 1 -40 33 -39 23 1 26 3 10 6 -25 5 -30 18 -10 26
10 4 10 6 0 6 -7 1 -13 8 -13 17 0 10 6 14 15 11 8 -4 17 -2 20 3 4 6 -7 10
-24 10 -29 0 -31 -2 -31 -40z"/>
<path d="M1101 118 c2 -34 3 -37 6 -13 5 36 17 50 33 40 8 -5 6 -11 -7 -20
-15 -11 -15 -15 -4 -29 7 -9 18 -16 23 -16 6 0 4 7 -3 17 -11 13 -11 17 -1 20
17 6 15 30 -4 37 -36 14 -44 7 -43 -36z"/>
<path d="M1187 153 c-11 -10 -8 -73 3 -73 6 0 10 6 10 14 0 8 8 17 18 19 16 4
16 5 0 6 -10 0 -18 8 -18 17 0 10 6 14 15 11 8 -4 17 -2 20 3 7 11 -38 14 -48
3z"/>
<path d="M1257 123 c-17 -43 -15 -52 9 -32 20 16 24 16 35 -2 4 -8 11 -11 14
-7 7 7 -25 78 -36 78 -4 0 -14 -17 -22 -37z m33 -3 c0 -5 -5 -10 -11 -10 -5 0
-7 5 -4 10 3 6 8 10 11 10 2 0 4 -4 4 -10z"/>
<path d="M1342 151 c-8 -5 -12 -21 -10 -37 2 -23 9 -30 31 -32 15 -2 27 2 27
8 0 7 -8 9 -21 5 -18 -6 -20 -3 -17 22 2 21 8 27 22 25 11 -2 15 1 11 7 -7 13
-25 14 -43 2z"/>
<path d="M1417 153 c-4 -3 -7 -21 -7 -40 0 -31 2 -33 33 -32 23 1 26 3 10 6
-27 5 -30 20 -5 26 16 4 16 5 0 6 -10 0 -18 8 -18 17 0 11 6 14 20 9 11 -4 20
-2 20 4 0 12 -43 15 -53 4z"/>
</g>
</svg>
